<?xml version="1.0" encoding="UTF-8"?>
<svg id="Layer_2" xmlns="http://www.w3.org/2000/svg" xmlns:xlink="http://www.w3.org/1999/xlink" viewBox="0 0 59.73 123.38">
  <defs>
    <style>
      .cls-1 {
        fill: #474cb4;
      }

      .cls-2 {
        fill: none;
      }

      .cls-3 {
        fill: #4045a3;
      }

      .cls-4 {
        fill: #575edf;
      }

      .cls-5 {
        fill: #3c4199;
      }

      .cls-6 {
        fill: #343885;
      }

      .cls-7 {
        isolation: isolate;
      }

      .cls-8 {
        fill: #333782;
      }

      .cls-9 {
        clip-path: url(#clippath-1);
      }

      .cls-10 {
        clip-path: url(#clippath-3);
      }

      .cls-11 {
        clip-path: url(#clippath-4);
      }

      .cls-12 {
        clip-path: url(#clippath-2);
      }

      .cls-13 {
        fill: #3e439e;
      }

      .cls-14 {
        fill: #363a8a;
      }

      .cls-15 {
        fill: #3a3f94;
      }

      .cls-16 {
        fill: #4247a8;
      }

      .cls-17 {
        fill: #383c8f;
      }

      .cls-18 {
        clip-path: url(#clippath);
      }
    </style>
    <clipPath id="clippath">
      <path class="cls-2" d="M30.91,106.14l-10.94-5.95c1.25.68,2.85.89,4.8.61,5.5-.77,8.27-4.62,8.28-11.54l10.94,5.95c-.01,6.92-2.77,10.76-8.28,11.54-1.94.27-3.54.07-4.8-.61Z"/>
    </clipPath>
    <clipPath id="clippath-1">
      <path class="cls-2" d="M20.94,121.18l-10.94-5.95c-1.41-.77-2.68-1.73-3.8-2.9C2.05,108.05-.02,101.48,0,92.62l10.94,5.95c-.02,8.86,2.05,15.44,6.19,19.71,1.13,1.17,2.4,2.13,3.8,2.9Z"/>
    </clipPath>
    <clipPath id="clippath-2">
      <path class="cls-2" d="M29.67,17.11l10.94,5.95c2.33,1.27,3.5,4.19,3.49,8.76l-10.94-5.95c0-4.57-1.15-7.49-3.49-8.76Z"/>
    </clipPath>
    <clipPath id="clippath-3">
      <path class="cls-2" d="M38.79,2.2l10.94,5.95c-3.77-2.05-8.53-2.67-14.29-1.86L24.5.34c5.76-.81,10.52-.19,14.29,1.86Z"/>
    </clipPath>
    <clipPath id="clippath-4">
      <path class="cls-2" d="M11.05,37.6L.11,31.65c.02-8.86,2.1-16.02,6.27-21.46C10.55,4.73,16.59,1.46,24.5.34l10.94,5.95c-7.91,1.11-13.95,4.39-18.12,9.84-4.17,5.44-6.25,12.6-6.27,21.46Z"/>
    </clipPath>
  </defs>
  <g id="Layer_1-2" data-name="Layer_1">
    <g class="cls-7">
      <g class="cls-7">
        <g class="cls-18">
          <g class="cls-7">
            <path class="cls-13" d="M30.91,106.14l-10.94-5.95c.07.04.13.07.2.1l10.94,5.95c-.07-.03-.14-.07-.2-.1"/>
            <path class="cls-3" d="M31.11,106.25l-10.94-5.95c.34.17.71.3,1.1.4l10.94,5.95c-.39-.1-.76-.23-1.1-.4"/>
            <path class="cls-16" d="M32.21,106.65l-10.94-5.95c1,.26,2.17.29,3.49.11,1.14-.16,2.17-.45,3.07-.88l10.94,5.95c-.91.43-1.93.72-3.07.88-1.32.19-2.49.15-3.49-.11"/>
            <path class="cls-3" d="M38.78,105.88l-10.94-5.95c.42-.2.82-.43,1.2-.68l10.94,5.95c-.37.26-.77.49-1.2.68"/>
            <path class="cls-13" d="M39.97,105.19l-10.94-5.95c.28-.19.54-.4.78-.62l10.94,5.95c-.25.22-.51.43-.78.62"/>
            <path class="cls-5" d="M40.76,104.58l-10.94-5.95c.22-.2.43-.41.63-.64l10.94,5.95c-.2.23-.41.44-.63.64"/>
            <path class="cls-15" d="M41.39,103.94l-10.94-5.95c.2-.23.39-.47.57-.72l10.94,5.95c-.18.25-.37.49-.57.72"/>
            <path class="cls-17" d="M41.96,103.22l-10.94-5.95c.2-.28.38-.58.55-.9l10.94,5.95c-.17.32-.35.62-.55.9"/>
            <path class="cls-14" d="M42.51,102.32l-10.94-5.95c.22-.41.42-.86.59-1.33l10.94,5.95c-.17.47-.37.91-.59,1.33"/>
            <path class="cls-6" d="M43.1,100.99l-10.94-5.95c.58-1.6.88-3.52.88-5.77l10.94,5.95c0,2.25-.3,4.17-.88,5.77"/>
          </g>
        </g>
      </g>
      <polygon class="cls-1" points="44.01 77.87 33.07 71.92 48.7 69.72 59.64 75.67 44.01 77.87"/>
      <polygon class="cls-8" points="43.98 95.22 33.04 89.27 33.07 71.92 44.01 77.87 43.98 95.22"/>
      <g class="cls-7">
        <g class="cls-9">
          <g class="cls-7">
            <path class="cls-6" d="M20.94,121.18l-10.94-5.95c-1.41-.77-2.68-1.73-3.8-2.9C2.05,108.05-.02,101.48,0,92.62l10.94,5.95c-.02,8.86,2.05,15.44,6.19,19.71,1.13,1.17,2.4,2.13,3.8,2.9"/>
          </g>
        </g>
      </g>
      <polygon class="cls-8" points="44.07 44.96 33.13 39 33.16 25.87 44.1 31.82 44.07 44.96"/>
      <g class="cls-7">
        <g class="cls-12">
          <g class="cls-7">
            <path class="cls-6" d="M44.1,31.82l-10.94-5.95c0-4.57-1.15-7.49-3.49-8.76l10.94,5.95c2.33,1.27,3.5,4.19,3.49,8.76"/>
          </g>
        </g>
      </g>
      <g class="cls-7">
        <g class="cls-10">
          <g class="cls-7">
            <path class="cls-16" d="M35.44,6.3L24.5.34c3.93-.55,7.4-.44,10.4.34l10.94,5.95c-3-.78-6.47-.89-10.4-.34"/>
            <path class="cls-3" d="M45.84,6.64L34.9.68c1.17.3,2.27.71,3.3,1.22l10.94,5.95c-1.03-.51-2.13-.91-3.3-1.22"/>
            <path class="cls-13" d="M49.14,7.85l-10.94-5.95c.2.1.39.2.59.3l10.94,5.95c-.19-.1-.39-.21-.59-.3"/>
          </g>
        </g>
      </g>
      <polygon class="cls-8" points="10.94 98.57 0 92.62 .11 31.65 11.05 37.6 10.94 98.57"/>
      <g class="cls-7">
        <g class="cls-11">
          <g class="cls-7">
            <path class="cls-6" d="M11.05,37.6L.11,31.65c0-5.32.77-10.02,2.27-14.11l10.94,5.95c-1.5,4.09-2.26,8.79-2.27,14.11"/>
            <path class="cls-14" d="M13.32,23.49l-10.94-5.95c.48-1.32,1.05-2.57,1.69-3.76l10.94,5.95c-.64,1.19-1.2,2.44-1.69,3.76"/>
            <path class="cls-17" d="M15.01,19.73l-10.94-5.95c.51-.94,1.06-1.85,1.67-2.71l10.94,5.95c-.61.86-1.16,1.77-1.67,2.71"/>
            <path class="cls-15" d="M16.68,17.02l-10.94-5.95c.21-.3.42-.59.65-.88.36-.47.73-.92,1.11-1.35l10.94,5.95c-.38.43-.75.88-1.11,1.35-.22.29-.44.58-.65.88"/>
            <path class="cls-5" d="M18.43,14.79l-10.94-5.95c.61-.69,1.25-1.33,1.92-1.94l10.94,5.95c-.67.61-1.32,1.25-1.92,1.94"/>
            <path class="cls-13" d="M20.36,12.85l-10.94-5.95c.75-.67,1.54-1.3,2.38-1.88l10.94,5.95c-.83.58-1.63,1.2-2.38,1.88"/>
            <path class="cls-3" d="M22.73,10.97l-10.94-5.95c1.11-.77,2.3-1.45,3.57-2.05l10.94,5.95c-1.27.6-2.46,1.28-3.57,2.05"/>
            <path class="cls-16" d="M26.3,8.92L15.36,2.97c2.7-1.27,5.75-2.15,9.14-2.62l10.94,5.95c-3.39.48-6.44,1.35-9.14,2.62"/>
          </g>
        </g>
      </g>
      <path class="cls-4" d="M35.44,6.3c7.91-1.11,13.94.47,18.09,4.75,4.14,4.28,6.21,10.85,6.19,19.71l-.02,12-15.63,2.2.02-13.13c.01-7.02-2.74-10.15-8.24-9.38s-8.27,4.68-8.28,11.7l-.12,63.4c-.01,6.92,2.73,9.99,8.24,9.21s8.27-4.62,8.28-11.54l.03-17.35,15.63-2.2-.03,16.06c-.02,8.86-2.11,16.02-6.27,21.46-4.17,5.45-10.21,8.73-18.12,9.84s-13.94-.47-18.09-4.75c-4.15-4.27-6.21-10.85-6.19-19.71l.11-60.97c.02-8.86,2.1-16.02,6.27-21.46,4.17-5.45,10.2-8.73,18.12-9.84Z"/>
    </g>
  </g>
</svg>